<svg id="acu-logo" data-name="Layer 1" xmlns="http://www.w3.org/2000/svg" viewBox="0 0 253 90"><defs><style>.cls-1{fill:#da291c;}.cls-2{fill:#fff;}</style></defs><title>Artboard 1</title><path class="cls-1" d="M54.24,1.29v29.6c0,15-10.07,31.36-26.29,37.87C11.74,62.24,1.67,45.88,1.67,30.89V1.29Z"/><polygon id="_Path_" data-name="&lt;Path&gt;" class="cls-2" points="11.43 30.99 27.98 9.22 44.54 30.99 27.98 52.76 11.43 30.99"/><path class="cls-1" d="M26.46,34A70.93,70.93,0,0,0,28,47l0,0,0,0a70.93,70.93,0,0,0,1.51-13V32.6h4.94V33A1.82,1.82,0,0,0,36,34.81,1.82,1.82,0,0,0,37.53,33V32.6h.37a1.82,1.82,0,0,0,1.84-1.53,1.82,1.82,0,0,0-1.84-1.53h-.37v-.37A1.82,1.82,0,0,0,36,27.33a1.82,1.82,0,0,0-1.53,1.84v.37H29.53V23.76h.37a1.82,1.82,0,0,0,1.84-1.53,1.82,1.82,0,0,0-1.84-1.53h-.37v-.37A1.82,1.82,0,0,0,28,18.48a1.82,1.82,0,0,0-1.53,1.84v.37h-.37a1.82,1.82,0,0,0-1.84,1.53,1.82,1.82,0,0,0,1.84,1.53h.37v5.78H21.53v-.37A1.82,1.82,0,0,0,20,27.33a1.82,1.82,0,0,0-1.53,1.84v.37h-.37a1.82,1.82,0,0,0-1.84,1.53,1.82,1.82,0,0,0,1.84,1.53h.37V33A1.82,1.82,0,0,0,20,34.81,1.82,1.82,0,0,0,21.53,33V32.6h4.94Z"/><g id="_Group_" data-name="&lt;Group&gt;"><path id="_Compound_Path_" data-name="&lt;Compound Path&gt;" class="cls-2" d="M7.38,79.2H5.9L1.67,88.61H3.3l.89-2H9.12l.88,2h1.62l-4.19-9.3Zm1.12,6H4.79L6.64,81Z"/><path id="_Path_2" data-name="&lt;Path&gt;" class="cls-2" d="M18.47,84.82a2.39,2.39,0,1,1-4.77,0V79.2H12.21v5.64a3.72,3.72,0,0,0,3.89,4,3.71,3.71,0,0,0,3.87-4V79.2H18.47Z"/><path id="_Path_3" data-name="&lt;Path&gt;" class="cls-2" d="M25.82,83c-1.38-.21-2.3-.52-2.3-1.33s1.1-1.33,2.19-1.33a2.86,2.86,0,0,1,2.41,1.11l.1.15,1.16-.72-.1-.16A3.85,3.85,0,0,0,25.69,79a4.37,4.37,0,0,0-3,1.06A2.22,2.22,0,0,0,22,81.73c0,2.11,2.17,2.45,3.61,2.68s2.45.56,2.45,1.46c0,1.41-1.83,1.52-2.39,1.52A3,3,0,0,1,23,85.88l-.09-.17-1.2.74.07.15a4.08,4.08,0,0,0,4,2.19c1.87,0,3.87-.76,3.87-2.91S27.63,83.32,25.82,83Z"/><polygon id="_Path_4" data-name="&lt;Path&gt;" class="cls-2" points="30.26 80.57 33.36 80.57 33.36 88.61 34.83 88.61 34.83 80.57 37.91 80.57 37.91 79.2 30.26 79.2 30.26 80.57"/><path id="_Compound_Path_2" data-name="&lt;Compound Path&gt;" class="cls-2" d="M47,82.28a3,3,0,0,0-3.25-3.08H39.5v9.41H41V85.34h1.91l2.82,3.27h1.92l-3-3.39A2.75,2.75,0,0,0,47,82.28Zm-6-1.7h2.79a1.69,1.69,0,0,1,1.77,1.73A1.62,1.62,0,0,1,43.74,84H41Z"/><path id="_Compound_Path_3" data-name="&lt;Compound Path&gt;" class="cls-2" d="M53.86,79.2H52.38l-4.24,9.41h1.63l.89-2H55.6l.88,2h1.62l-4.19-9.3Zm1.12,6H51.27L53.12,81Z"/><polygon id="_Path_5" data-name="&lt;Path&gt;" class="cls-2" points="61.07 79.2 59.56 79.2 59.56 88.61 65.99 88.61 65.99 87.19 61.07 87.19 61.07 79.2"/><rect id="_Path_6" data-name="&lt;Path&gt;" class="cls-2" x="67.31" y="79.2" width="1.51" height="9.41"/><path id="_Compound_Path_4" data-name="&lt;Compound Path&gt;" class="cls-2" d="M76,79.2H74.53l-4.24,9.41h1.63l.89-2h4.93l.88,2h1.62l-4.19-9.3Zm1.12,6H73.42L75.27,81Z"/><polygon id="_Path_7" data-name="&lt;Path&gt;" class="cls-2" points="88.04 85.79 82.77 79.2 81.71 79.2 81.71 88.61 83.2 88.61 83.2 82.04 88.47 88.61 89.52 88.61 89.52 79.2 88.04 79.2 88.04 85.79"/><path id="_Path_8" data-name="&lt;Path&gt;" class="cls-2" d="M103.74,86.37a3.58,3.58,0,0,1-2.45,1,3.45,3.45,0,0,1,0-6.89,3.51,3.51,0,0,1,2.42.94l.12.12,1-1-.14-.14a5.07,5.07,0,0,0-7-.06A5,5,0,0,0,96.37,84a4.62,4.62,0,0,0,4.91,4.84,5,5,0,0,0,3.5-1.38l.14-.13-1.05-1Z"/><path id="_Compound_Path_5" data-name="&lt;Compound Path&gt;" class="cls-2" d="M111.2,79.2h-1.48l-4.24,9.41h1.63l.89-2h4.93l.88,2h1.62l-4.19-9.3Zm1.12,6h-3.71L110.46,81Z"/><polygon id="_Path_9" data-name="&lt;Path&gt;" class="cls-2" points="115.05 80.57 118.15 80.57 118.15 88.61 119.61 88.61 119.61 80.57 122.7 80.57 122.7 79.2 115.05 79.2 115.05 80.57"/><polygon id="_Path_10" data-name="&lt;Path&gt;" class="cls-2" points="130.59 83.11 125.79 83.11 125.79 79.2 124.28 79.2 124.28 88.61 125.79 88.61 125.79 84.53 130.59 84.53 130.59 88.61 132.07 88.61 132.07 79.2 130.59 79.2 130.59 83.11"/><path id="_Compound_Path_6" data-name="&lt;Compound Path&gt;" class="cls-2" d="M138.59,79a4.65,4.65,0,0,0-4.81,4.91,4.78,4.78,0,1,0,9.57,0A4.64,4.64,0,0,0,138.59,79Zm0,8.36a3.21,3.21,0,0,1-3.3-3.45,3.24,3.24,0,0,1,3.3-3.51,3.28,3.28,0,0,1,3.28,3.51A3.2,3.2,0,0,1,138.59,87.37Z"/><polygon id="_Path_11" data-name="&lt;Path&gt;" class="cls-2" points="146.58 79.2 145.07 79.2 145.07 88.61 151.5 88.61 151.5 87.19 146.58 87.19 146.58 79.2"/><rect id="_Path_12" data-name="&lt;Path&gt;" class="cls-2" x="152.83" y="79.2" width="1.51" height="9.41"/><path id="_Path_13" data-name="&lt;Path&gt;" class="cls-2" d="M163.42,86.37a3.58,3.58,0,0,1-2.45,1,3.45,3.45,0,0,1,0-6.89,3.49,3.49,0,0,1,2.42.94l.12.12,1-1-.14-.14A4.89,4.89,0,0,0,161,79a4.84,4.84,0,0,0-3.54,1.37A5,5,0,0,0,156.06,84,4.62,4.62,0,0,0,161,88.79a5,5,0,0,0,3.5-1.38l.14-.13-1.05-1Z"/><path id="_Path_14" data-name="&lt;Path&gt;" class="cls-2" d="M177.09,84.82a2.39,2.39,0,1,1-4.77,0V79.2h-1.49v5.64a3.88,3.88,0,1,0,7.76,0V79.2h-1.49Z"/><polygon id="_Path_15" data-name="&lt;Path&gt;" class="cls-2" points="187.35 85.79 182.08 79.2 181.02 79.2 181.02 88.61 182.51 88.61 182.51 82.04 187.78 88.61 188.83 88.61 188.83 79.2 187.35 79.2 187.35 85.79"/><rect id="_Path_16" data-name="&lt;Path&gt;" class="cls-2" x="191.38" y="79.2" width="1.51" height="9.41"/><polygon id="_Path_17" data-name="&lt;Path&gt;" class="cls-2" points="196.06 79.2 194.41 79.2 198.31 88.64 199.77 88.64 203.67 79.2 202.02 79.2 199.03 86.61 196.06 79.2"/><polygon id="_Path_18" data-name="&lt;Path&gt;" class="cls-2" points="206.68 84.47 211.69 84.47 211.69 83.06 206.68 83.06 206.68 80.6 211.91 80.6 211.91 79.2 205.18 79.2 205.18 88.61 212.12 88.61 212.12 87.17 206.68 87.17 206.68 84.47"/><path id="_Compound_Path_7" data-name="&lt;Compound Path&gt;" class="cls-2" d="M221.66,82.28a3,3,0,0,0-3.25-3.08h-4.29v9.41h1.51V85.34h1.91l2.82,3.27h1.92l-3-3.39A2.75,2.75,0,0,0,221.66,82.28Zm-6-1.7h2.79a1.69,1.69,0,0,1,1.77,1.73A1.62,1.62,0,0,1,218.37,84h-2.74Z"/><path id="_Path_19" data-name="&lt;Path&gt;" class="cls-2" d="M227.27,83c-1.38-.21-2.3-.52-2.3-1.33s1.1-1.33,2.19-1.33a2.86,2.86,0,0,1,2.4,1.11l.1.15,1.16-.72-.1-.16A3.85,3.85,0,0,0,227.14,79a4.37,4.37,0,0,0-3,1.06,2.22,2.22,0,0,0-.65,1.65c0,2.11,2.17,2.45,3.61,2.68s2.45.56,2.45,1.46c0,1.41-1.83,1.52-2.39,1.52a3,3,0,0,1-2.76-1.51l-.09-.17-1.19.74.07.15a4.07,4.07,0,0,0,4,2.19c1.87,0,3.87-.76,3.87-2.91S229.08,83.32,227.27,83Z"/><rect id="_Path_20" data-name="&lt;Path&gt;" class="cls-2" x="232.95" y="79.2" width="1.51" height="9.41"/><polygon class="cls-2" points="244.71 79.2 236.03 79.2 236.03 80.57 239.13 80.57 239.13 88.61 240.59 88.61 240.59 80.57 243.79 80.57 246.58 84.81 246.58 88.61 248.1 88.61 248.1 84.81 251.63 79.52 251.67 79.44 251.67 79.2 250.02 79.2 247.34 83.33 244.71 79.2"/></g><path id="_Compound_Path_8" data-name="&lt;Compound Path&gt;" class="cls-2" d="M251.66,1.29v41.3c0,21.84-17.09,25.16-24.69,25.16-13.67,0-28.11-4.75-28.11-25.73V1.29H211.5V42.87c0,12.25,5.89,19.27,16,19.27,9.4,0,16.9-6.17,16.9-18.8V1.29Z"/><path id="_Path_21" data-name="&lt;Path&gt;" class="cls-2" d="M163.15,67.75c-21.84,0-35.13-15-35.13-33C128,16.86,141.88.34,164.67.34a31.56,31.56,0,0,1,19.46,7.12c2.77,2.24,5.22,5.81,5.22,8.92a6.64,6.64,0,1,1-11.45-4.58C175,8,169.07,6,164.29,6c-15.19,0-24.12,14.15-24.12,27.72,0,15.67,10.06,28.58,25.73,28.58,8.07,0,14.42-3.34,20.92-8.19l2.44,3.53C182.33,64.62,172.36,67.75,163.15,67.75Z"/><path class="cls-2" d="M114.44,66.7h12.29L101.52,1.36H91.68L66.61,66.77h6.85l7-18.89h26.95Zm-32-24,11.49-31,11.57,31Z"/></svg>