<svg xmlns="http://www.w3.org/2000/svg" width="320" height="22" viewBox="0 0 320 22"><path d="M5.144,2.94049c0-.97123.03039-1.09223,1.63685-1.09223,3.15346,0,4.88146,1.91141,4.88146,4.85423,0,2.64065-1.18239,4.49189-4.45673,5.09818-.18166.06018-.18166.51571.03038.60759a10.221,10.221,0,0,0,4.18328-.91041,5.14375,5.14375,0,0,0,3.03192-4.82512A5.24348,5.24348,0,0,0,12.0256,2.12067,10.94579,10.94579,0,0,0,6.20483.90679a47.785,47.785,0,0,0-6.00242.24265.50786.50786,0,0,0-.06077.759l1.09123.12164c1.36469.15141,1.42546.66777,1.42546,3.2463v11.198c0,3.18611-.06077,3.54911-1.81915,3.79241L.20241,20.358a.59028.59028,0,0,0,.06077.759c1.33365-.06147,2.42488-.09188,3.69842-.09188,1.21277,0,2.21285.03041,3.94149.09188a.59431.59431,0,0,0,.06013-.759l-.81843-.09123c-1.94-.21288-2.00081-.6063-2.00081-3.79241Zm22.46465,18.57A10.35466,10.35466,0,0,0,38.12855,10.92132c0-5.34083-3.51677-10.40859-10.51992-10.40859A10.48416,10.48416,0,0,0,16.8159,11.22479c0,5.46117,4.06239,10.28565,10.79273,10.28565Zm.3937-.94018c-5.972,0-8.15515-5.82612-8.15515-10.31671,0-6.64594,4.09276-8.80064,7.24622-8.80064,5.79038,0,8.00323,5.40229,8.00323,10.40794,0,5.97817-3.456,8.70941-7.0943,8.70941ZM42.434,16.47438c0,3.18611-.06077,3.57953-1.81916,3.79241l-.7583.09123a.58636.58636,0,0,0,.06077.759c1.4248-.06147,2.51669-.09188,3.78957-.09188,1.21277,0,2.24324.03041,3.60792.09188a.59515.59515,0,0,0,.06077-.759l-.63677-.09123c-1.75838-.2433-1.81915-.6063-1.81915-3.79241V12.65091c0-.638.06077-.66777,1.42481-.66777a2.16206,2.16206,0,0,1,2.15273.97124c.93931,1.36529,2.18246,3.45853,2.97115,4.58182,2.15208,3.06447,3.69842,3.82347,6.27523,3.82347a4.6979,4.6979,0,0,0,1.33366-.15271.25388.25388,0,0,0-.02974-.42447,3.62728,3.62728,0,0,1-2.092-.84894C54.894,18.204,53.28685,15.7762,50.862,11.86085c-.15193-.24265-.3032-.54612-.15193-.72794a5.61162,5.61162,0,0,0,3.78958-5.06712,4.52147,4.52147,0,0,0-2.516-4.24794A10.72091,10.72091,0,0,0,46.92047.90679c-2.97115,0-5.06311.09188-6.76073.24265a.5078.5078,0,0,0-.03038.759l.97034.12164c1.24315.15141,1.33431.66777,1.33431,3.55041ZM44.91966,2.81885c0-.84959.09115-.97059,1.97042-.97059a4.46712,4.46712,0,0,1,4.85107,4.67241A4.35564,4.35564,0,0,1,50.2252,10.284a5.07456,5.07456,0,0,1-3.12307.78811c-1.5457,0-2.00081-.06017-2.09132-.15076a2.39111,2.39111,0,0,1-.09115-1.0023Zm22.55516.15206c0-1.00165-.03039-1.03271.87918-1.03271h2.15273a6.03722,6.03722,0,0,1,3.51677.75965c.45447.33388.6665,1.45653.75766,2.21488a.56729.56729,0,0,0,.788-.06147A18.40847,18.40847,0,0,1,76.02431.239C75.96354.11867,75.63.08826,75.47869.14908c-.45511.78812-.72792.84959-2.36477.84959H60.83562c-1.39442,0-2.39515.03041-2.57681-.94082a.74988.74988,0,0,0-.576,0,32.02847,32.02847,0,0,1-1.152,4.52035.58469.58469,0,0,0,.788.21288,5.53763,5.53763,0,0,1,1.364-2.09323c.75831-.69818,2.42554-.75965,3.72881-.75965h1.66788c.90958,0,.90958.03106.90958.97124V16.47438c0,3.18611-.15193,3.641-1.87992,3.79241L62.018,20.358a.53065.53065,0,0,0,0,.759c1.94-.06147,3.00153-.09188,4.21365-.09188,1.21277,0,2.24388.03041,3.97188.09188.18165-.09188.24242-.638.06077-.759l-.97035-.09123c-1.75838-.15141-1.81914-.6063-1.81914-3.79241ZM80.20758,16.47438c0,3.18611-.15192,3.641-1.87992,3.79241l-1.00008.09123a.58954.58954,0,0,0,.06076.759c1.78813-.06147,2.81924-.09188,4.12251-.09188h2.72873c2.69834,0,5.39669.03041,8.12477.09188A26.47851,26.47851,0,0,0,93.729,16.8982a.55816.55816,0,0,0-.7583-.21224,7.62525,7.62525,0,0,1-2.15208,2.94412c-.66715.33388-1.54634.45424-3.88073.45424-2.668,0-3.30473-.33389-3.66869-.69688-.48484-.517-.576-1.54842-.576-3.15636V11.95273c0-.78877.09115-.81982,1.00072-.81982h1.75839a10.14916,10.14916,0,0,1,2.33438.152,1.29786,1.29786,0,0,1,.94,1.15306l.27281,1.18347a.59817.59817,0,0,0,.788-.02976c0-.66777-.12154-1.82147-.12154-2.91371,0-1.15306.12154-2.33653.12154-3.06447a.59893.59893,0,0,0-.788-.03041l-.24243,1.2443c-.15191.75835-.364.94082-.72792,1.06117a11.15754,11.15754,0,0,1-2.5768.18312H83.694c-.90957,0-1.00072,0-1.00072-.85024V3.15208c0-1.15241,0-1.21388.90957-1.21388h2.18312a14.4795,14.4795,0,0,1,2.94076.18247c1.57608.39471,1.84889,1.45653,2.304,2.88265a.5953.5953,0,0,0,.75766-.06018A34.10413,34.10413,0,0,0,91.3035.90679a40.28679,40.28679,0,0,1-4.09277.09188H81.51085c-1.2425,0-2.27361-.03106-3.57689-.09188-.1823.09188-.24242.638-.06076.75835l.48485.06147c1.78876.21159,1.84953.66712,1.84953,3.82283Zm17.70473,0c0,3.18611-.06077,3.57953-1.81916,3.79241l-.75765.09123a.58561.58561,0,0,0,.06076.759c1.42482-.06147,2.51605-.09188,3.78958-.09188,1.21277,0,2.24324.03041,3.60727.09188a.59354.59354,0,0,0,.06077-.759l-.63676-.09123c-1.75839-.2433-1.81851-.6063-1.81851-3.79241V12.65091c0-.638.06012-.66777,1.42481-.66777a2.16036,2.16036,0,0,1,2.15208.97124c.94,1.36529,2.18311,3.45853,2.97115,4.58182,2.15273,3.06447,3.69842,3.82347,6.27588,3.82347a4.69777,4.69777,0,0,0,1.33365-.15271.25361.25361,0,0,0-.03038-.42447,3.63083,3.63083,0,0,1-2.09195-.84894c-2.06158-1.72959-3.66805-4.15735-6.09359-8.0727-.15126-.24265-.30319-.54612-.15126-.72794a5.61163,5.61163,0,0,0,3.78957-5.06712,4.52194,4.52194,0,0,0-2.51669-4.24794,10.71971,10.71971,0,0,0-5.06246-.91106c-2.97115,0-5.06312.09188-6.76073.24265a.50778.50778,0,0,0-.03038.759l.97034.12164c1.24251.15141,1.33366.66777,1.33366,3.55041Zm2.4863-13.65553c0-.84959.0905-.97059,1.97042-.97059a4.46693,4.46693,0,0,1,4.85043,4.67241,4.35391,4.35391,0,0,1-1.516,3.7633,5.07368,5.07368,0,0,1-3.12242.78811c-1.54635,0-2.00081-.06017-2.092-.15076a2.40726,2.40726,0,0,1-.0905-1.0023Z" fill="#fff" fill-rule="evenodd"></path><path d="M125.04572,16.47438c0,3.18611-.06077,3.54911-1.81915,3.79241l-.69753.09123a.59106.59106,0,0,0,.06077.759c1.4248-.06147,2.516-.09188,3.78957-.09188,1.06084,0,3.00154.24265,4.94157.24265a14.62211,14.62211,0,0,0,6.79177-1.45653,9.95326,9.95326,0,0,0,5.30552-9.042,9.09333,9.09333,0,0,0-6.155-8.95141,18.985,18.985,0,0,0-6.66959-.91106c-2.57745,0-5.03272.09188-7.60952.24265a.45446.45446,0,0,0-.03039.759l.66651.09123c1.27353.18182,1.42545.81918,1.42545,2.94347ZM127.53138,4.5782c0-1.36465.06077-2.123.30319-2.30547a6.75049,6.75049,0,0,1,3.00154-.42447c7.94245,0,9.54957,5.643,9.54957,8.98118,0,5.64494-2.63757,9.49753-8.5191,9.49753-1.90967,0-3.06166-.30348-3.72882-1.24365-.51523-.72859-.60638-1.69918-.60638-3.30712ZM157.5351,18.11208a6.22924,6.22924,0,0,1,.39369,1.60924c0,.30217-.42343.48529-1.06084.54547l-.8792.09123a.50985.50985,0,0,0,.06142.759c.87854-.03041,2.03053-.09188,3.48573-.09188,1.36469,0,2.42554.03041,3.668.09188a.59471.59471,0,0,0,0-.759l-.81844-.09123c-1.30327-.15141-1.69761-.6063-2.57679-3.21588L155.65518,4.85126c-.45447-1.33424-.93931-2.73059-1.33366-4.06547a.42982.42982,0,0,0-.45511-.27306,3.39819,3.39819,0,0,1-1.57608,1.15241,4.34815,4.34815,0,0,1-.51523,2.15471l-3.0927,8.19306c-1.27288,3.39835-2.12234,5.37123-2.66795,6.76694a2.01413,2.01413,0,0,1-1.81851,1.48694l-1.00072.09123a.59782.59782,0,0,0,.06142.759c.81776-.03041,1.909-.09188,2.91037-.09188,1.42482.03041,2.36412.03041,3.15217.09188a.489.489,0,0,0,.06076-.759l-1.00073-.09123c-.72726-.06018-.87918-.2433-.87918-.6063a11.63994,11.63994,0,0,1,.66715-2.51964l1.06085-3.18612c.21267-.63735.39435-.72794,1.152-.72794h4.57826c.90958,0,1.03047.09059,1.24251.75835ZM152.108,6.00432a18.57532,18.57532,0,0,1,.72792-1.78912h.06077a19.96143,19.96143,0,0,1,.69689,1.91141l1.63749,4.94547c.27282.81983.212.94083-.66714.94083h-3.72882c-.8488,0-.87918-.02977-.63677-.72795Zm16.58377,11.37982a35.56655,35.56655,0,0,1,1.39506,4.03635,1.23053,1.23053,0,0,0,.45447.08995.618.618,0,0,0,.33293-.08995c.51523-1.60923,1.94-5.12858,3.1528-7.92064l1.6375-3.73159a73.16457,73.16457,0,0,1,3.39523-6.97918,1.936,1.936,0,0,1,1.57673-1.06247l.90893-.06147a.59685.59685,0,0,0-.06012-.75835c-1.00073.06082-1.94069.09188-2.94076.09188-1.152,0-2.304-.03106-3.15216-.09188a.53025.53025,0,0,0-.06142.75835l.54626.06147c1.0602.12165,1.36339.3643,1.36339.57653a3.23443,3.23443,0,0,1-.27281,1.18347c-.51523,1.30447-1.94,4.73324-2.81923,6.79736-.69688,1.60794-1.97043,4.73388-2.91039,6.73652-1.516-3.45917-2.91038-6.94876-4.30415-10.46876a38.15941,38.15941,0,0,1-1.51662-4.24859c.03038-.24265.27282-.42512,1.42481-.57653l.45447-.06147a.53073.53073,0,0,0-.06012-.75835c-1.27289.06082-2.33438.09188-3.66869.09188-1.30327,0-2.27362-.03106-3.15216-.09188a.50914.50914,0,0,0-.06142.75835l.54627.06147c1.30327.15141,1.75774.78877,2.45528,2.48859Zm16.00645-.97123c0,3.21717-.06012,3.641-1.84887,3.85388l-.75832.09123a.59112.59112,0,0,0,.06142.759c1.51532-.06147,2.54577-.09188,3.81932-.09188,1.21277,0,2.24322.03041,3.75918.09188.18231-.09188.24243-.638.06078-.759l-.75766-.09123c-1.78877-.21288-1.84953-.63671-1.84953-3.85388V5.61091c0-3.21718.06076-3.73289,1.84953-3.8843l.75766-.06147c.18165-.12035.12153-.66647-.06078-.75835-1.516.06082-2.54641.09188-3.75918.09188-1.27355,0-2.304-.03106-3.81932-.09188-.1823.09188-.24242.638-.06142.75835l.75832.06147c1.78875.15141,1.84887.66712,1.84887,3.8843Zm19.615-.51571c0-2.88329-1.87927-4.642-3.78893-5.82547l-2.42553-1.51735c-1.12227-.69818-2.57746-1.97224-2.57746-3.73289,0-1.3957.63741-3.36858,3.60791-3.36858,2.91039,0,3.72881,1.97288,4.12316,3.42941.15191.18182.63676.09123.75766-.09124a13.28882,13.28882,0,0,0-.54563-3.70182,4.03209,4.03209,0,0,1-1.06083-.18247,11.71885,11.71885,0,0,0-2.81989-.39406c-3.94084,0-6.18408,2.33588-6.18408,5.21853a6.47424,6.47424,0,0,0,3.2737,5.22047l2.88064,1.88035a4.561,4.561,0,0,1,2.48566,4.24924,3.4445,3.4445,0,0,1-3.78957,3.48894c-3.51677,0-4.75928-2.97388-5.21374-4.521-.12218-.18182-.57665-.12165-.72792.09059a14.0423,14.0423,0,0,0,.81778,4.24859,9.46648,9.46648,0,0,0,4.73017,1.122c3.94086,0,6.4569-2.27506,6.4569-5.61324Z" fill="#fff" fill-rule="evenodd"></path><path d="M230.02188,11.22479c1.4552,0,1.516.06017,1.516.97059v4.279c0,3.18611,0,3.48958-1.84953,3.79241l-.576.09123a.5903.5903,0,0,0,.06078.759c1.33365-.06147,2.42488-.09188,3.668-.09188,1.18239,0,2.21414.03041,3.66934.09188.181-.09188.24242-.638.05947-.759l-.72727-.09123c-1.75773-.21288-1.81915-.6063-1.81915-3.79241V5.54944c0-3.18612.06142-3.641,1.81915-3.82283l.63677-.06147c.18165-.12035.12089-.66647-.06076-.75835-1.36341.06082-2.39516.09188-3.57755.09188-1.24315,0-2.27361-.03106-3.668-.09188-.18231.09188-.24243.638-.06078.75835l.576.06147c1.78877.18183,1.84953.63671,1.84953,3.82283V9.03967c0,.94082-.06076.97124-1.516.97124H221.3515c-1.4552,0-1.51532-.03042-1.51532-.97124V5.54944c0-3.18612.06012-3.641,1.81851-3.82283l.576-.06147c.18165-.12035.12088-.66647-.06078-.75835-1.30392.06082-2.33374.09188-3.51677.09188-1.30391,0-2.33438-.06147-3.82-.09188-.18165.09188-.24242.638-.06012.75835l.7874.06147c1.57672.12165,1.78877.63671,1.78877,3.82283V16.47438c0,3.18611-.06077,3.48958-1.75839,3.79241l-.51523.09123a.59032.59032,0,0,0,.06076.759c1.18239-.03041,2.21286-.09188,3.51677-.09188,1.183,0,2.21285.03041,3.851.09188.181-.09188.24242-.638.05946-.759l-.87918-.09123c-1.69761-.18247-1.84825-.6063-1.84825-3.79241v-4.279c0-.91042.06012-.97059,1.51532-.97059ZM249.485,21.51044a10.35427,10.35427,0,0,0,10.51991-10.58912c0-5.34083-3.51675-10.40859-10.51991-10.40859a10.48361,10.48361,0,0,0-10.79208,10.71206c0,5.46117,4.06173,10.28565,10.79208,10.28565Zm.39433-.94018c-5.97268,0-8.15515-5.82612-8.15515-10.31671,0-6.64594,4.09278-8.80064,7.24558-8.80064,5.79039,0,8.00323,5.40229,8.00323,10.40794,0,5.97817-3.456,8.70941-7.09366,8.70941Zm19.4935-14.65588c-.94-1.94247-1.697-3.82347-1.57672-5.00759-1.00009.09188-1.81851.09188-2.51605.09188-.75766,0-1.48492-.03106-2.39514-.09188a.56857.56857,0,0,0-.12155.75835l.4855.06147c1.84888.24265,2.09195.69753,2.03119,2.60894-.06076,1.66877-.18231,4.24924-.33356,6.76694-.181,3.005-.33358,4.67371-.51526,6.67636-.18228,2.12429-.60638,2.30547-1.87991,2.48794l-.6665.09123a.60038.60038,0,0,0,.06012.759c1.03112-.06147,2.12234-.09188,3.09268-.09188,1.152,0,2.33438.03041,3.36551.09188.21139-.09188.24243-.57717.02972-.759l-1.152-.09123c-1.1824-.09059-1.364-.57588-1.364-2.82182,0-2.57918.12088-5.28.212-7.13059.09179-1.76.18164-3.52.30319-5.40165h.06076c.6665,1.39571,1.30328,2.97388,1.94,4.36959l2.72873,5.85653c.6969,1.48629,2.1521,4.46017,2.66733,6.06811a.37185.37185,0,0,0,.27344.1223.35.35,0,0,0,.30255-.1223c.54626-1.3957,1.91031-4.24729,3.27435-6.9177l2.69833-5.31041c.60639-1.18347,1.7584-3.61059,1.97043-3.94512h.0614l.09052,12.65388c0,1.94247,0,2.42777-1.48557,2.57918l-.87921.09123a.56293.56293,0,0,0,.06079.759c1.24314-.06147,2.60718-.09188,3.66867-.09188,1.09061,0,2.33374.03041,3.57691.09188a.56079.56079,0,0,0,.06076-.759l-.97034-.09123c-1.4248-.121-1.39444-.94083-1.48559-2.45753-.2424-4.36959-.2728-9.98347-.33356-13.20065-.0304-2.123.212-2.70017,2.12234-2.882l.63739-.06147a.64063.64063,0,0,0-.031-.75835c-.93933.06082-1.94071.09188-2.69837.09188a22.66588,22.66588,0,0,1-2.27359-.09188c-.06015,1.39635-.94,3.06512-2.304,5.82612l-2.849,5.7957c-.75894,1.54841-1.5166,3.1253-2.335,4.55271h-.06012c-.72794-1.33553-1.39508-2.73124-2.09262-4.15736Zm23.19193,10.56c0,3.18611-.15192,3.641-1.87992,3.79241l-1.00073.09123a.591.591,0,0,0,.06076.759c1.78876-.06147,2.81989-.09188,4.12314-.09188h2.72873c2.69836,0,5.39606.03041,8.12479.09188a26.41588,26.41588,0,0,0,1.36468-4.21882.55816.55816,0,0,0-.7583-.21224,7.63192,7.63192,0,0,1-2.1521,2.94412c-.66778.33388-1.547.45424-3.88071.45424-2.668,0-3.30474-.33389-3.6687-.69688-.48483-.517-.576-1.54842-.576-3.15636V11.95273c0-.78877.09115-.81982,1.00073-.81982h1.75836a10.14905,10.14905,0,0,1,2.33438.152,1.29548,1.29548,0,0,1,.93933,1.15306l.2728,1.18347a.599.599,0,0,0,.78869-.02976c0-.66777-.12155-1.82147-.12155-2.91371,0-1.15306.12155-2.33653.12155-3.06447a.59977.59977,0,0,0-.78869-.03041l-.24243,1.2443c-.15125.75835-.36264.94082-.72727,1.06117a11.15747,11.15747,0,0,1-2.57681.18312h-1.75836c-.90958,0-1.00073,0-1.00073-.85024V3.15208c0-1.15241,0-1.21388.90957-1.21388h2.18247a14.472,14.472,0,0,1,2.94076.18247c1.57672.39471,1.85019,1.45653,2.304,2.88265a.59717.59717,0,0,0,.759-.06018,34.52532,34.52532,0,0,0-.48486-4.03635,40.31013,40.31013,0,0,1-4.09342.09188H293.868c-1.24313,0-2.273-.03106-3.57751-.09188-.18167.09188-.24243.638-.06012.75835l.48483.06147c1.78879.21159,1.84955.66712,1.84955,3.82283Zm27.07263-.57718c0-2.88329-1.87991-4.642-3.78958-5.82547L313.4223,8.55438c-1.12164-.69818-2.57681-1.97224-2.57681-3.73289,0-1.3957.63675-3.36858,3.60791-3.36858,2.91037,0,3.72882,1.97288,4.1225,3.42941.15191.18182.63678.09123.7583-.09124a13.28931,13.28931,0,0,0-.5456-3.70182,4.03646,4.03646,0,0,1-1.06152-.18247,11.70847,11.70847,0,0,0-2.81921-.39406c-3.9415,0-6.18473,2.33588-6.18473,5.21853,0,2.48859,1.75837,4.21882,3.27433,5.22047l2.88,1.88035a4.56174,4.56174,0,0,1,2.4863,4.24924,3.44428,3.44428,0,0,1-3.78891,3.48894c-3.51743,0-4.76056-2.97388-5.2157-4.521-.12088-.18182-.57535-.12165-.72726.09059a14.0203,14.0203,0,0,0,.81842,4.24859,9.46563,9.46563,0,0,0,4.72955,1.122c3.94083,0,6.45752-2.27506,6.45752-5.61324Z" fill="#fff" fill-rule="evenodd"></path></svg>